<svg xmlns="http://www.w3.org/2000/svg" width="200" height="200" class="icon" viewBox="0 0 1024 1024"><path d="M794.325 544.085c67.712.171 122.582 56.064 123.008 125.184v122.454c-.426 69.205-55.253 125.184-123.008 125.61H674.304c-67.67-.426-122.41-56.448-122.624-125.568V669.27c0-69.12 54.912-125.184 122.624-125.184zm-515.37 0a32.853 32.853 0 0 1 31.573 15.659 34.39 34.39 0 0 1 0 35.84 32.853 32.853 0 0 1-31.573 15.701h-49.28c-31.446 0-56.96 25.899-57.174 57.984v120.96a58.88 58.88 0 0 0 57.174 57.984H350.42c15.147.086 29.696-5.973 40.406-16.853 10.752-10.88 16.768-25.685 16.768-41.13V608.596l-.512-4.522a34.005 34.005 0 0 1 15.36-30.166 32.555 32.555 0 0 1 37.034 1.11 34.133 34.133 0 0 1 12.8 35.498V791.38c0 69.334-55.04 125.568-122.965 125.568H229.675c-67.328-1.408-121.6-56.832-123.008-125.568V669.27c0-33.28 12.97-65.194 36.053-88.661a121.387 121.387 0 0 1 86.955-36.523zm515.37 67.2H674.304c-31.36 0-56.747 25.942-56.747 57.984v122.454c-.128 15.445 5.803 30.293 16.47 41.173s25.173 16.939 40.277 16.853h120.021c15.104.086 29.611-5.973 40.278-16.853 10.666-10.923 16.64-25.728 16.512-41.13V669.268c0-15.36-5.974-30.122-16.64-41.002a56.235 56.235 0 0 0-40.15-16.982zm0-504.618c67.2 1.621 121.259 56.96 122.624 125.568v122.112a126.592 126.592 0 0 1-34.858 89.002 121.43 121.43 0 0 1-86.272 37.718h-49.664a33.536 33.536 0 0 1-29.568-33.579c0-17.28 12.8-31.787 29.568-33.621h48.17c15.232-.086 29.782-6.4 40.448-17.494s16.555-26.069 16.342-41.642V232.277c-.427-31.872-25.6-57.6-56.79-58.026H674.304c-31.36 0-56.747 25.984-56.747 58.026v183.126l-.469 4.565a33.707 33.707 0 0 1-33.408 28.459 32.427 32.427 0 0 1-23.04-10.454 33.792 33.792 0 0 1-8.96-24.106V232.235c-.085-33.28 12.8-65.195 35.797-88.747a121.387 121.387 0 0 1 86.827-36.821zm-444.629 0c67.84.213 122.795 56.32 123.008 125.568V354.73c0 33.28-12.97 65.194-36.053 88.661s-54.4 36.65-86.955 36.523H229.675c-67.712-.171-122.582-56.064-123.008-125.184V232.277c.426-69.248 55.253-125.184 123.008-125.61zm0 67.584H229.675a56.192 56.192 0 0 0-40.875 16.554c-10.923 10.923-17.067 25.856-17.067 41.43V354.73c-.298 15.786 5.718 31.018 16.64 42.197 10.923 11.136 25.856 17.28 41.302 16.939h120.021c15.232-.086 29.781-6.4 40.448-17.494s16.555-26.069 16.341-41.642V232.277c-.213-32-25.514-57.813-56.789-58.026z"/></svg>