<svg xmlns="http://www.w3.org/2000/svg" width="228.32" height="200" class="icon" viewBox="0 0 1169 1024"><path d="M753.993 579.628c-36.431.049-65.952 29.568-66.001 65.995.049 36.437 29.569 65.958 65.996 66.005 36.431-.05 65.946-29.572 65.982-65.997-.037-36.431-29.552-65.954-65.974-66.003m-.003 195.857c-71.684-.085-129.772-58.174-129.858-129.849 0-71.6 58.265-129.864 129.858-129.864 71.572 0 129.857 58.265 129.857 129.857 0 71.614-58.285 129.858-129.857 129.858m78.621 89.741c.301.215 1.158.514 2.035.514h.107l62.828-34.714c-1.499-3.536-8.443-20.636-8.443-38.443.038-53.347 41.815-96.924 94.437-99.845 1.006-4.169 5.141-27.719 5.141-45.398s-4.135-41.207-4.886-45.385c-52.867-2.933-94.633-46.488-94.692-99.812 0-17.894 6.965-34.995 8.443-38.51l-61.799-34.328-.258-.022h-.007c-.875 0-1.693.239-2.393.655-19.08 19.049-42.621 33.67-68.915 42.165 27.001-9.606 9.023-2.813-7.499-2.813-16.628 0-34.8-6.922-53.957-20.572-22.418-16.043-40.464-36.776-52.957-60.854 29.265 40.879 28.43 40.648 27.542 40.647h-.192l-64.006 35.185c1.499 3.557 8.421 20.637 8.421 38.443-.064 53.335-41.843 96.893-94.46 99.802-1.005 4.169-5.097 27.719-5.097 45.398s4.092 41.228 4.864 45.407c52.882 2.922 94.665 46.493 94.715 99.833 0 17.874-7.008 35.038-8.508 38.488l60.622 33.878h.128c.9 0 1.714-.321 2.036-.514 19.262-20.097 43.143-35.613 69.945-44.855-27.302 10.269-8.853 3.026 8.14 3.026 17.185 0 35.785 7.373 55.328 21.901 13.114 9.728 22.2 19.499 23.336 20.722m19.929 95.272c-12.107-.022-23.85-5.014-31.435-13.372-10.35-11.335-43.072-40.822-69.9-40.822-26.614 0-59.872 29.679-69.428 40.028-7.565 8.25-19.222 13.157-31.2 13.157-5.7 0-11.078-1.092-15.985-3.257l-.857-.364-81.472-45.557-.814-.6c-9.923-7.179-16.306-18.725-16.306-31.76a38.958 38.958 0 0 1 3.29-15.719c-.055.122 7.402-17.064 7.402-32.792-.061-47.669-38.688-86.296-86.351-86.357h-3.435c-13.628 0-24.75-12.129-28.286-30.858-.3-1.499-6.965-37.072-6.965-65.078 0-28.049 6.643-63.599 6.943-65.143 3.622-18.964 14.935-31.157 28.843-30.835h2.872c47.689-.061 86.331-38.709 86.378-86.395 0-15.69-7.458-32.875-7.523-33.068-2.001-4.536-3.165-9.824-3.165-15.385 0-13.064 6.427-24.627 16.291-31.7l.952-.658 85.993-47.25.9-.365c4.822-2.078 10.115-3.107 15.729-3.107 11.958 0 23.635 4.778 31.285 12.858 10.178 10.65 42.343 38.357 68.357 38.357 25.8 0 57.793-27.172 67.928-37.628 7.607-7.908 19.2-12.6 31.028-12.6 5.722 0 11.122 1.072 16.072 3.214l.857.364 83.036 46.158.835.578c14.85 10.329 20.508 30.665 13.136 47.228-.043.128-7.5 17.315-7.5 32.999.061 47.674 38.685 86.306 86.35 86.379h2.9c13.865-.3 25.242 11.872 28.843 30.857.278 1.5 6.943 37.093 6.943 65.101 0 28.028-6.665 63.642-6.986 65.143-3.557 18.942-14.935 31.135-28.8 30.815h-2.892c-47.672.073-86.296 38.705-86.357 86.372 0 15.692 7.457 32.921 7.521 33.07 2.006 4.546 3.173 9.847 3.173 15.419 0 13.058-6.411 24.62-16.257 31.708l-.931.68-84.493 46.671-.857.365c-4.557 1.991-9.867 3.151-15.448 3.151l-.249-.001zm195.172-619.928v.007c0 23.67-19.188 42.857-42.857 42.857-23.67 0-42.857-19.188-42.857-42.857V169.206c0-11.828-9.557-21.493-21.365-21.493H169.078c-11.657 0-21.364 9.642-21.364 21.493v514.157c0 11.828 9.557 21.493 21.365 21.493h192.928c23.67 0 42.857 19.188 42.857 42.857 0 23.67-19.188 42.857-42.857 42.857H104.858c-23.669 0-42.857-19.188-42.857-42.856V104.857C62.001 81.18 81.244 62 104.986 62h899.87c23.67 0 42.857 19.188 42.857 42.857v235.714zM254.857 919.142c0-23.678 19.329-42.857 43.051-42.857h171.049c23.67 0 42.857 19.188 42.857 42.857 0 23.67-19.188 42.857-42.857 42.857H297.928l-.215.001c-23.67 0-42.857-19.188-42.857-42.857v-.001z"/></svg>