<svg xmlns="http://www.w3.org/2000/svg" width="200" height="200" class="icon" viewBox="0 0 1024 1024"><path d="m556.373 418.702-5.689-12.515c-6.826-13.654-23.893-20.48-37.546-12.516-13.654 6.827-20.48 23.893-12.516 37.547l5.69 12.515c23.892 50.063 76.23 81.92 131.981 81.92h31.858c15.929 0 28.445-12.515 28.445-28.444s-12.516-28.445-28.445-28.445h-32.995c-34.134 0-65.992-19.342-80.783-50.062z"/><path d="M937.529 366.364 672.427 327.68 552.96 87.609c-3.413-7.965-10.24-13.653-18.204-18.205-19.343-10.24-43.236-1.137-53.476 18.205L362.951 327.68 97.85 366.364c-9.102 1.138-17.067 5.69-22.756 11.378-7.964 7.965-11.377 18.205-11.377 28.445 0 10.24 4.55 20.48 12.515 28.444l192.285 186.596-45.512 263.964c-1.137 9.102 0 17.067 4.552 25.031 4.55 9.102 13.653 15.93 23.893 19.342 3.413 1.138 7.964 2.276 11.378 2.276 6.826 0 12.515-1.138 18.204-4.551L517.69 802.133 754.347 927.29c7.964 4.551 17.066 5.689 25.03 4.551 21.619-3.413 36.41-23.893 32.996-45.511l-45.51-263.965L959.146 435.77c6.826-5.689 10.24-14.791 11.377-22.756 3.414-22.755-11.377-43.235-32.995-46.649zM721.35 587.094c-9.102 9.102-13.653 22.755-11.378 35.27l40.96 238.934-215.04-112.64c-5.689-3.414-12.515-4.551-18.204-4.551s-12.516 1.137-18.205 4.55l-215.04 112.64 40.96-238.933c2.276-12.515-2.275-26.168-11.377-35.27l-172.943-169.53 240.072-35.27c12.515-2.276 23.893-10.24 29.582-21.618l106.95-217.316L624.64 360.676c5.689 11.377 17.067 19.342 29.582 21.617l240.071 35.271-172.942 169.53z"/></svg>