<svg xmlns="http://www.w3.org/2000/svg" width="200" height="200" class="icon" viewBox="0 0 1024 1024"><path d="M512 69.62c-22.448 0-44.908 4.222-61.963 12.755L88.815 262.997c-34.133 17.067-34.133 44.92 0 61.964l361.187 180.633c17.124 8.522 39.584 12.755 62.032 12.755s44.92-4.233 61.964-12.755l361.255-180.633c34.134-17.067 34.134-44.908 0-61.964L573.998 82.375c-17.067-8.533-39.504-12.754-61.964-12.754zm0 669.424c-27.716 0-55.376-5.541-77.483-16.566L80.634 545.588a34.68 34.68 0 0 1 31.05-62.032l353.85 176.958c24.393 12.197 68.619 12.197 93.012 0l353.838-176.958a34.668 34.668 0 0 1 30.993 62.031L589.528 722.49A177.243 177.243 0 0 1 512 739.044zm0 214.869c-27.716 0-55.376-5.541-77.483-16.566L80.668 760.388a34.634 34.634 0 1 1 30.982-61.963L465.5 875.383c24.394 12.197 68.62 12.197 93.013 0l353.85-176.958a34.668 34.668 0 1 1 30.992 62.032l-353.849 176.89c-22.084 11.093-49.743 16.566-77.505 16.566z"/></svg>