<svg xmlns="http://www.w3.org/2000/svg" width="200" height="200" class="icon" viewBox="0 0 1024 1024"><path d="M414.476 121.905a73.143 73.143 0 0 1 73.143 73.143v219.428a73.143 73.143 0 0 1-73.143 73.143H195.048a73.143 73.143 0 0 1-73.143-73.143V195.048a73.143 73.143 0 0 1 73.143-73.143h219.428zm-219.428 73.143v219.428h219.428V195.048H195.048zM414.476 536.38a73.143 73.143 0 0 1 73.143 73.143v219.428a73.143 73.143 0 0 1-73.143 73.143H195.048a73.143 73.143 0 0 1-73.143-73.143V609.524a73.143 73.143 0 0 1 73.143-73.143h219.428zm-219.428 73.143v219.428h219.428V609.524H195.048zM536.38 182.857V256h353.524v-73.143H536.38zm0 426.667v73.143h353.524v-73.143H536.38zm0-268.19v73.142h353.524v-73.143H536.38zm0 426.666v73.143h353.524V768H536.38z"/></svg>