<svg xmlns="http://www.w3.org/2000/svg" width="231.64" height="200" class="icon" viewBox="0 0 1186 1024"><path d="M823.492 954.975c-67.518 0-180.078 19.89-197.636 65.811v1.02c-39.13 1.023-48.39 0-65.877 0-17.53-45.979-130.119-65.875-197.64-65.875H0V.67h393.965c85.014 0 158.538 43.682 198.917 108.143C633.267 44.354 706.83.671 791.881.671h393.954v954.304H823.492z"/><path d="M559.981 198.311c0-77.015-83.178-131.756-164.703-131.756H65.882v823.494H362.34c65.352-1.153 168.42.693 197.64 48.819V901.97c-1.252-45.589-.07-107.846 0-110.412V198.31zm559.97-131.828H790.555c-81.521 0-164.698 54.715-164.698 131.631V790.77c.071 2.537 1.254 64.794 0 110.284v36.86c29.216-48.062 132.283-49.937 197.637-48.756h296.459V66.483z"/></svg>