<svg xmlns="http://www.w3.org/2000/svg" width="200" height="200" class="icon" viewBox="0 0 1024 1024"><path d="M486.882 602.835v80.354a240.941 240.941 0 0 0-240.941 240.94h-80.294a321.235 321.235 0 0 1 321.235-321.294zm0-40.117c-133.12 0-240.941-107.821-240.941-240.941S353.76 80.836 486.88 80.836s240.942 107.82 240.942 240.94-107.821 240.942-240.941 240.942zm0-80.354a160.587 160.587 0 1 0 0-321.235 160.587 160.587 0 1 0 0 321.235zM591.089 796.07a140.95 140.95 0 0 1 0-65.175l-39.816-23.01 40.177-69.511 39.756 23.01c16.022-15.18 35.358-26.323 56.5-32.648v-45.96H768v45.96c21.384 6.385 40.659 17.71 56.44 32.648l39.756-23.01 40.237 69.511-39.876 23.01a140.192 140.192 0 0 1 0 65.175l39.876 23.01-40.177 69.511-39.816-23.01A140.348 140.348 0 0 1 768 898.23v45.96h-80.294v-45.96a140.348 140.348 0 0 1-56.44-32.648l-39.816 23.01-40.177-69.511 39.816-23.01zm136.734 27.648a60.235 60.235 0 1 0 0-120.47 60.235 60.235 0 0 0 0 120.47z"/></svg>