<svg xmlns="http://www.w3.org/2000/svg" width="200" height="200" class="icon" viewBox="0 0 1024 1024"><path d="M981.333 768a42.155 42.155 0 0 1-24.789-7.979L657.877 546.688a42.539 42.539 0 0 1 0-69.419l298.667-213.333a42.667 42.667 0 0 1 67.456 34.73v426.667A42.71 42.71 0 0 1 981.333 768zM756.096 512l182.57 130.432V381.568L756.097 512z"/><path d="M597.333 853.333H128c-70.57 0-128-57.429-128-128V298.667c0-70.571 57.43-128 128-128h469.333c70.571 0 128 57.429 128 128v426.666c0 70.571-57.429 128-128 128zM128 256c-23.51 0-42.667 19.157-42.667 42.667v426.666C85.333 748.885 104.491 768 128 768h469.333A42.667 42.667 0 0 0 640 725.333V298.667c0-23.51-19.115-42.667-42.667-42.667H128z"/></svg>